<svg width="105" height="13" viewBox="0 0 105 13" fill="none" xmlns="http://www.w3.org/2000/svg">
<path d="M7.17045 3.85227C7.13258 3.43561 6.96402 3.11174 6.66477 2.88068C6.36932 2.64583 5.94697 2.52841 5.39773 2.52841C5.03409 2.52841 4.73106 2.57576 4.48864 2.67045C4.24621 2.76515 4.06439 2.89583 3.94318 3.0625C3.82197 3.22538 3.75947 3.41288 3.75568 3.625C3.74811 3.79924 3.7822 3.95265 3.85795 4.08523C3.9375 4.2178 4.05114 4.33523 4.19886 4.4375C4.35038 4.53598 4.5322 4.62311 4.74432 4.69886C4.95644 4.77462 5.19508 4.84091 5.46023 4.89773L6.46023 5.125C7.03599 5.25 7.54356 5.41667 7.98295 5.625C8.42614 5.83333 8.79735 6.08144 9.09659 6.36932C9.39962 6.6572 9.62879 6.98864 9.78409 7.36364C9.93939 7.73864 10.0189 8.15909 10.0227 8.625C10.0189 9.35985 9.83333 9.99053 9.46591 10.517C9.09848 11.0436 8.57008 11.447 7.88068 11.7273C7.19508 12.0076 6.36742 12.1477 5.39773 12.1477C4.42424 12.1477 3.57576 12.0019 2.85227 11.7102C2.12879 11.4186 1.56629 10.9754 1.16477 10.3807C0.763258 9.78598 0.556818 9.03409 0.545455 8.125H3.23864C3.26136 8.5 3.36174 8.8125 3.53977 9.0625C3.7178 9.3125 3.96212 9.50189 4.27273 9.63068C4.58712 9.75947 4.95076 9.82386 5.36364 9.82386C5.74242 9.82386 6.06439 9.77273 6.32955 9.67045C6.59849 9.56818 6.80492 9.42614 6.94886 9.24432C7.0928 9.0625 7.16667 8.85417 7.17045 8.61932C7.16667 8.39962 7.09849 8.21212 6.96591 8.05682C6.83333 7.89773 6.62879 7.76136 6.35227 7.64773C6.07955 7.5303 5.73106 7.42235 5.30682 7.32386L4.09091 7.03977C3.08333 6.80871 2.28977 6.43561 1.71023 5.92045C1.13068 5.40151 0.842803 4.70076 0.846591 3.81818C0.842803 3.09848 1.03598 2.4678 1.42614 1.92614C1.81629 1.38447 2.35606 0.962121 3.04545 0.659091C3.73485 0.35606 4.52083 0.204545 5.40341 0.204545C6.30492 0.204545 7.08712 0.357954 7.75 0.664772C8.41667 0.967803 8.93371 1.39394 9.30114 1.94318C9.66856 2.49242 9.85606 3.12879 9.86364 3.85227H7.17045ZM11.4432 12V0.363636H16.25C17.1212 0.363636 17.8731 0.534091 18.5057 0.875C19.142 1.21212 19.6326 1.68371 19.9773 2.28977C20.322 2.89205 20.4943 3.5928 20.4943 4.39205C20.4943 5.19508 20.3182 5.89773 19.9659 6.5C19.6174 7.09848 19.1193 7.5625 18.4716 7.89205C17.8239 8.22159 17.0549 8.38636 16.1648 8.38636H13.1989V6.17045H15.642C16.0663 6.17045 16.4205 6.09659 16.7045 5.94886C16.9924 5.80114 17.2102 5.5947 17.358 5.32955C17.5057 5.06061 17.5795 4.74811 17.5795 4.39205C17.5795 4.0322 17.5057 3.72159 17.358 3.46023C17.2102 3.19508 16.9924 2.99053 16.7045 2.84659C16.4167 2.70265 16.0625 2.63068 15.642 2.63068H14.2557V12H11.4432ZM21.8807 12V0.363636H24.6932V9.71591H29.5341V12H21.8807ZM33.8026 0.363636V12H30.9901V0.363636H33.8026ZM35.1875 2.64773V0.363636H45.0227V2.64773H41.4943V12H38.7216V2.64773H35.1875ZM52.6861 3.85227C52.6482 3.43561 52.4796 3.11174 52.1804 2.88068C51.8849 2.64583 51.4626 2.52841 50.9134 2.52841C50.5497 2.52841 50.2467 2.57576 50.0043 2.67045C49.7618 2.76515 49.58 2.89583 49.4588 3.0625C49.3376 3.22538 49.2751 3.41288 49.2713 3.625C49.2637 3.79924 49.2978 3.95265 49.3736 4.08523C49.4531 4.2178 49.5668 4.33523 49.7145 4.4375C49.866 4.53598 50.0478 4.62311 50.2599 4.69886C50.4721 4.77462 50.7107 4.84091 50.9759 4.89773L51.9759 5.125C52.5516 5.25 53.0592 5.41667 53.4986 5.625C53.9418 5.83333 54.313 6.08144 54.6122 6.36932C54.9152 6.6572 55.1444 6.98864 55.2997 7.36364C55.455 7.73864 55.5346 8.15909 55.5384 8.625C55.5346 9.35985 55.349 9.99053 54.9815 10.517C54.6141 11.0436 54.0857 11.447 53.3963 11.7273C52.7107 12.0076 51.883 12.1477 50.9134 12.1477C49.9399 12.1477 49.0914 12.0019 48.3679 11.7102C47.6444 11.4186 47.0819 10.9754 46.6804 10.3807C46.2789 9.78598 46.0724 9.03409 46.0611 8.125H48.7543C48.777 8.5 48.8774 8.8125 49.0554 9.0625C49.2334 9.3125 49.4777 9.50189 49.7884 9.63068C50.1027 9.75947 50.4664 9.82386 50.8793 9.82386C51.258 9.82386 51.58 9.77273 51.8452 9.67045C52.1141 9.56818 52.3205 9.42614 52.4645 9.24432C52.6084 9.0625 52.6823 8.85417 52.6861 8.61932C52.6823 8.39962 52.6141 8.21212 52.4815 8.05682C52.349 7.89773 52.1444 7.76136 51.8679 7.64773C51.5952 7.5303 51.2467 7.42235 50.8224 7.32386L49.6065 7.03977C48.599 6.80871 47.8054 6.43561 47.2259 5.92045C46.6463 5.40151 46.3584 4.70076 46.3622 3.81818C46.3584 3.09848 46.5516 2.4678 46.9418 1.92614C47.3319 1.38447 47.8717 0.962121 48.5611 0.659091C49.2505 0.35606 50.0365 0.204545 50.919 0.204545C51.8205 0.204545 52.6027 0.357954 53.2656 0.664772C53.9323 0.967803 54.4493 1.39394 54.8168 1.94318C55.1842 2.49242 55.3717 3.12879 55.3793 3.85227H52.6861ZM56.9588 0.363636H60.4418L63.3963 7.56818H63.5327L66.4872 0.363636H69.9702V12H67.2315V4.85227H67.1349L64.3395 11.9261H62.5895L59.794 4.8125H59.6974V12H56.9588V0.363636ZM74.2415 12H71.2188L75.1449 0.363636H78.8892L82.8153 12H79.7926L77.0597 3.29545H76.9688L74.2415 12ZM73.8381 7.42045H80.1562V9.55682H73.8381V7.42045ZM84.0682 12V0.363636H88.875C89.7462 0.363636 90.4981 0.520833 91.1307 0.835227C91.767 1.14583 92.2576 1.5928 92.6023 2.17614C92.947 2.75568 93.1193 3.44318 93.1193 4.23864C93.1193 5.04545 92.9432 5.73106 92.5909 6.29545C92.2386 6.85606 91.7386 7.28409 91.0909 7.57955C90.4432 7.87121 89.6761 8.01705 88.7898 8.01705H85.75V5.80114H88.267C88.6913 5.80114 89.0455 5.74621 89.3295 5.63636C89.6174 5.52273 89.8352 5.35227 89.983 5.125C90.1307 4.89394 90.2045 4.59848 90.2045 4.23864C90.2045 3.87879 90.1307 3.58144 89.983 3.34659C89.8352 3.10795 89.6174 2.92992 89.3295 2.8125C89.0417 2.69129 88.6875 2.63068 88.267 2.63068H86.8807V12H84.0682ZM90.6193 6.68182L93.517 12H90.4489L87.608 6.68182H90.6193ZM94.2812 2.64773V0.363636H104.116V2.64773H100.588V12H97.8153V2.64773H94.2812Z" fill="url(#paint0_linear_3_2)"/>
<defs>
<linearGradient id="paint0_linear_3_2" x1="0" y1="9.5" x2="106" y2="9.5" gradientUnits="userSpaceOnUse">
<stop offset="0.163473" stop-color="#EC8036"/>
<stop offset="0.735608" stop-color="#ED493D"/>
</linearGradient>
</defs>
</svg>
